<mxfile host="65bd71144e">
    <diagram id="C5RBs43oDa-KdzZeNtuy" name="Page-1">
        <mxGraphModel dx="868" dy="457" grid="1" gridSize="10" guides="1" tooltips="1" connect="1" arrows="1" fold="1" page="1" pageScale="1" pageWidth="1654" pageHeight="1169" math="0" shadow="0">
            <root>
                <mxCell id="WIyWlLk6GJQsqaUBKTNV-0"/>
                <mxCell id="WIyWlLk6GJQsqaUBKTNV-1" parent="WIyWlLk6GJQsqaUBKTNV-0"/>
                <mxCell id="zkfFHV4jXpPFQw0GAbJ--13" value="Movement" style="swimlane;fontStyle=0;align=center;verticalAlign=top;childLayout=stackLayout;horizontal=1;startSize=26;horizontalStack=0;resizeParent=1;resizeLast=0;collapsible=1;marginBottom=0;rounded=0;shadow=0;strokeWidth=1;" parent="WIyWlLk6GJQsqaUBKTNV-1" vertex="1">
                    <mxGeometry x="395" y="40" width="320" height="294" as="geometry">
                        <mxRectangle x="590" y="330" width="170" height="26" as="alternateBounds"/>
                    </mxGeometry>
                </mxCell>
                <mxCell id="MZsKt1vFW72v1z1dqqYP-6" value="+ Drop position" style="text;align=left;verticalAlign=top;spacingLeft=4;spacingRight=4;overflow=hidden;rotatable=0;points=[[0,0.5],[1,0.5]];portConstraint=eastwest;" parent="zkfFHV4jXpPFQw0GAbJ--13" vertex="1">
                    <mxGeometry y="26" width="320" height="26" as="geometry"/>
                </mxCell>
                <mxCell id="MZsKt1vFW72v1z1dqqYP-7" value="+ Bottom Left" style="text;align=left;verticalAlign=top;spacingLeft=4;spacingRight=4;overflow=hidden;rotatable=0;points=[[0,0.5],[1,0.5]];portConstraint=eastwest;" parent="zkfFHV4jXpPFQw0GAbJ--13" vertex="1">
                    <mxGeometry y="52" width="320" height="26" as="geometry"/>
                </mxCell>
                <mxCell id="MZsKt1vFW72v1z1dqqYP-9" value="+ Top Right" style="text;align=left;verticalAlign=top;spacingLeft=4;spacingRight=4;overflow=hidden;rotatable=0;points=[[0,0.5],[1,0.5]];portConstraint=eastwest;" parent="zkfFHV4jXpPFQw0GAbJ--13" vertex="1">
                    <mxGeometry y="78" width="320" height="26" as="geometry"/>
                </mxCell>
                <mxCell id="0" value="+ Port" style="text;align=left;verticalAlign=top;spacingLeft=4;spacingRight=4;overflow=hidden;rotatable=0;points=[[0,0.5],[1,0.5]];portConstraint=eastwest;" vertex="1" parent="zkfFHV4jXpPFQw0GAbJ--13">
                    <mxGeometry y="104" width="320" height="26" as="geometry"/>
                </mxCell>
                <mxCell id="1" value="+ Home" style="text;align=left;verticalAlign=top;spacingLeft=4;spacingRight=4;overflow=hidden;rotatable=0;points=[[0,0.5],[1,0.5]];portConstraint=eastwest;" vertex="1" parent="zkfFHV4jXpPFQw0GAbJ--13">
                    <mxGeometry y="130" width="320" height="26" as="geometry"/>
                </mxCell>
                <mxCell id="zkfFHV4jXpPFQw0GAbJ--15" value="" style="line;html=1;strokeWidth=1;align=left;verticalAlign=middle;spacingTop=-1;spacingLeft=3;spacingRight=3;rotatable=0;labelPosition=right;points=[];portConstraint=eastwest;" parent="zkfFHV4jXpPFQw0GAbJ--13" vertex="1">
                    <mxGeometry y="156" width="320" height="16" as="geometry"/>
                </mxCell>
                <mxCell id="MZsKt1vFW72v1z1dqqYP-11" value="- goHome() : void" style="text;align=left;verticalAlign=top;spacingLeft=4;spacingRight=4;overflow=hidden;rotatable=0;points=[[0,0.5],[1,0.5]];portConstraint=eastwest;fontStyle=0" parent="zkfFHV4jXpPFQw0GAbJ--13" vertex="1">
                    <mxGeometry y="172" width="320" height="26" as="geometry"/>
                </mxCell>
                <mxCell id="MZsKt1vFW72v1z1dqqYP-12" value="- moveTo() : void" style="text;align=left;verticalAlign=top;spacingLeft=4;spacingRight=4;overflow=hidden;rotatable=0;points=[[0,0.5],[1,0.5]];portConstraint=eastwest;" parent="zkfFHV4jXpPFQw0GAbJ--13" vertex="1">
                    <mxGeometry y="198" width="320" height="24" as="geometry"/>
                </mxCell>
                <mxCell id="dj2-hHlsCEYwOQRSpU0T-10" value="+ moveObj(object, top left, bottom right, resolution) : void" style="text;align=left;verticalAlign=top;spacingLeft=4;spacingRight=4;overflow=hidden;rotatable=0;points=[[0,0.5],[1,0.5]];portConstraint=eastwest;" parent="zkfFHV4jXpPFQw0GAbJ--13" vertex="1">
                    <mxGeometry y="222" width="320" height="24" as="geometry"/>
                </mxCell>
                <mxCell id="MZsKt1vFW72v1z1dqqYP-13" value="- pickAt(height, suction) : void" style="text;align=left;verticalAlign=top;spacingLeft=4;spacingRight=4;overflow=hidden;rotatable=0;points=[[0,0.5],[1,0.5]];portConstraint=eastwest;" parent="zkfFHV4jXpPFQw0GAbJ--13" vertex="1">
                    <mxGeometry y="246" width="320" height="24" as="geometry"/>
                </mxCell>
                <mxCell id="3Jpb0egSYrd38bqTkLHM-0" value="+ setBCord(frame) : void" style="text;align=left;verticalAlign=top;spacingLeft=4;spacingRight=4;overflow=hidden;rotatable=0;points=[[0,0.5],[1,0.5]];portConstraint=eastwest;" parent="zkfFHV4jXpPFQw0GAbJ--13" vertex="1">
                    <mxGeometry y="270" width="320" height="24" as="geometry"/>
                </mxCell>
                <mxCell id="dj2-hHlsCEYwOQRSpU0T-0" value="Object" style="swimlane;fontStyle=0;align=center;verticalAlign=top;childLayout=stackLayout;horizontal=1;startSize=26;horizontalStack=0;resizeParent=1;resizeLast=0;collapsible=1;marginBottom=0;rounded=0;shadow=0;strokeWidth=1;" parent="WIyWlLk6GJQsqaUBKTNV-1" vertex="1">
                    <mxGeometry x="480" y="440" width="150" height="251" as="geometry">
                        <mxRectangle x="590" y="330" width="170" height="26" as="alternateBounds"/>
                    </mxGeometry>
                </mxCell>
                <mxCell id="dj2-hHlsCEYwOQRSpU0T-1" value="+ centre" style="text;align=left;verticalAlign=top;spacingLeft=4;spacingRight=4;overflow=hidden;rotatable=0;points=[[0,0.5],[1,0.5]];portConstraint=eastwest;" parent="dj2-hHlsCEYwOQRSpU0T-0" vertex="1">
                    <mxGeometry y="26" width="150" height="26" as="geometry"/>
                </mxCell>
                <mxCell id="dj2-hHlsCEYwOQRSpU0T-2" value="+ contour" style="text;align=left;verticalAlign=top;spacingLeft=4;spacingRight=4;overflow=hidden;rotatable=0;points=[[0,0.5],[1,0.5]];portConstraint=eastwest;" parent="dj2-hHlsCEYwOQRSpU0T-0" vertex="1">
                    <mxGeometry y="52" width="150" height="26" as="geometry"/>
                </mxCell>
                <mxCell id="dj2-hHlsCEYwOQRSpU0T-3" value="+ shape" style="text;align=left;verticalAlign=top;spacingLeft=4;spacingRight=4;overflow=hidden;rotatable=0;points=[[0,0.5],[1,0.5]];portConstraint=eastwest;" parent="dj2-hHlsCEYwOQRSpU0T-0" vertex="1">
                    <mxGeometry y="78" width="150" height="26" as="geometry"/>
                </mxCell>
                <mxCell id="dj2-hHlsCEYwOQRSpU0T-4" value="+ colour" style="text;align=left;verticalAlign=top;spacingLeft=4;spacingRight=4;overflow=hidden;rotatable=0;points=[[0,0.5],[1,0.5]];portConstraint=eastwest;" parent="dj2-hHlsCEYwOQRSpU0T-0" vertex="1">
                    <mxGeometry y="104" width="150" height="26" as="geometry"/>
                </mxCell>
                <mxCell id="dj2-hHlsCEYwOQRSpU0T-56" value="+ vert" style="text;align=left;verticalAlign=top;spacingLeft=4;spacingRight=4;overflow=hidden;rotatable=0;points=[[0,0.5],[1,0.5]];portConstraint=eastwest;" parent="dj2-hHlsCEYwOQRSpU0T-0" vertex="1">
                    <mxGeometry y="130" width="150" height="26" as="geometry"/>
                </mxCell>
                <mxCell id="dj2-hHlsCEYwOQRSpU0T-6" value="" style="line;html=1;strokeWidth=1;align=left;verticalAlign=middle;spacingTop=-1;spacingLeft=3;spacingRight=3;rotatable=0;labelPosition=right;points=[];portConstraint=eastwest;" parent="dj2-hHlsCEYwOQRSpU0T-0" vertex="1">
                    <mxGeometry y="156" width="150" height="16" as="geometry"/>
                </mxCell>
                <mxCell id="dj2-hHlsCEYwOQRSpU0T-7" value="- repr() : string " style="text;align=left;verticalAlign=top;spacingLeft=4;spacingRight=4;overflow=hidden;rotatable=0;points=[[0,0.5],[1,0.5]];portConstraint=eastwest;fontStyle=0" parent="dj2-hHlsCEYwOQRSpU0T-0" vertex="1">
                    <mxGeometry y="172" width="150" height="26" as="geometry"/>
                </mxCell>
                <mxCell id="dj2-hHlsCEYwOQRSpU0T-8" value="+  notGrey() : bool" style="text;align=left;verticalAlign=top;spacingLeft=4;spacingRight=4;overflow=hidden;rotatable=0;points=[[0,0.5],[1,0.5]];portConstraint=eastwest;" parent="dj2-hHlsCEYwOQRSpU0T-0" vertex="1">
                    <mxGeometry y="198" width="150" height="24" as="geometry"/>
                </mxCell>
                <mxCell id="dj2-hHlsCEYwOQRSpU0T-9" value="+ collidesWith(pos) : bool" style="text;align=left;verticalAlign=top;spacingLeft=4;spacingRight=4;overflow=hidden;rotatable=0;points=[[0,0.5],[1,0.5]];portConstraint=eastwest;" parent="dj2-hHlsCEYwOQRSpU0T-0" vertex="1">
                    <mxGeometry y="222" width="150" height="24" as="geometry"/>
                </mxCell>
                <mxCell id="dj2-hHlsCEYwOQRSpU0T-11" value="UI" style="swimlane;fontStyle=0;align=center;verticalAlign=top;childLayout=stackLayout;horizontal=1;startSize=26;horizontalStack=0;resizeParent=1;resizeLast=0;collapsible=1;marginBottom=0;rounded=0;shadow=0;strokeWidth=1;" parent="WIyWlLk6GJQsqaUBKTNV-1" vertex="1">
                    <mxGeometry x="650" y="830" width="190" height="250" as="geometry">
                        <mxRectangle x="590" y="330" width="170" height="26" as="alternateBounds"/>
                    </mxGeometry>
                </mxCell>
                <mxCell id="dj2-hHlsCEYwOQRSpU0T-12" value="+ Width" style="text;align=left;verticalAlign=top;spacingLeft=4;spacingRight=4;overflow=hidden;rotatable=0;points=[[0,0.5],[1,0.5]];portConstraint=eastwest;" parent="dj2-hHlsCEYwOQRSpU0T-11" vertex="1">
                    <mxGeometry y="26" width="190" height="26" as="geometry"/>
                </mxCell>
                <mxCell id="dj2-hHlsCEYwOQRSpU0T-13" value="+ Height" style="text;align=left;verticalAlign=top;spacingLeft=4;spacingRight=4;overflow=hidden;rotatable=0;points=[[0,0.5],[1,0.5]];portConstraint=eastwest;" parent="dj2-hHlsCEYwOQRSpU0T-11" vertex="1">
                    <mxGeometry y="52" width="190" height="26" as="geometry"/>
                </mxCell>
                <mxCell id="dj2-hHlsCEYwOQRSpU0T-15" value="+ Display" style="text;align=left;verticalAlign=top;spacingLeft=4;spacingRight=4;overflow=hidden;rotatable=0;points=[[0,0.5],[1,0.5]];portConstraint=eastwest;" parent="dj2-hHlsCEYwOQRSpU0T-11" vertex="1">
                    <mxGeometry y="78" width="190" height="26" as="geometry"/>
                </mxCell>
                <mxCell id="dj2-hHlsCEYwOQRSpU0T-22" value="+ Background" style="text;align=left;verticalAlign=top;spacingLeft=4;spacingRight=4;overflow=hidden;rotatable=0;points=[[0,0.5],[1,0.5]];portConstraint=eastwest;" parent="dj2-hHlsCEYwOQRSpU0T-11" vertex="1">
                    <mxGeometry y="104" width="190" height="26" as="geometry"/>
                </mxCell>
                <mxCell id="dj2-hHlsCEYwOQRSpU0T-16" value="" style="line;html=1;strokeWidth=1;align=left;verticalAlign=middle;spacingTop=-1;spacingLeft=3;spacingRight=3;rotatable=0;labelPosition=right;points=[];portConstraint=eastwest;" parent="dj2-hHlsCEYwOQRSpU0T-11" vertex="1">
                    <mxGeometry y="130" width="190" height="16" as="geometry"/>
                </mxCell>
                <mxCell id="dj2-hHlsCEYwOQRSpU0T-17" value="+ drawObjects(objects) : void" style="text;align=left;verticalAlign=top;spacingLeft=4;spacingRight=4;overflow=hidden;rotatable=0;points=[[0,0.5],[1,0.5]];portConstraint=eastwest;fontStyle=0" parent="dj2-hHlsCEYwOQRSpU0T-11" vertex="1">
                    <mxGeometry y="146" width="190" height="26" as="geometry"/>
                </mxCell>
                <mxCell id="dj2-hHlsCEYwOQRSpU0T-18" value="+ checkClicked(Objects) : object" style="text;align=left;verticalAlign=top;spacingLeft=4;spacingRight=4;overflow=hidden;rotatable=0;points=[[0,0.5],[1,0.5]];portConstraint=eastwest;" parent="dj2-hHlsCEYwOQRSpU0T-11" vertex="1">
                    <mxGeometry y="172" width="190" height="24" as="geometry"/>
                </mxCell>
                <mxCell id="dj2-hHlsCEYwOQRSpU0T-19" value="+ clear() : void" style="text;align=left;verticalAlign=top;spacingLeft=4;spacingRight=4;overflow=hidden;rotatable=0;points=[[0,0.5],[1,0.5]];portConstraint=eastwest;" parent="dj2-hHlsCEYwOQRSpU0T-11" vertex="1">
                    <mxGeometry y="196" width="190" height="24" as="geometry"/>
                </mxCell>
                <mxCell id="dj2-hHlsCEYwOQRSpU0T-20" value="+ updateBg(image) : void" style="text;align=left;verticalAlign=top;spacingLeft=4;spacingRight=4;overflow=hidden;rotatable=0;points=[[0,0.5],[1,0.5]];portConstraint=eastwest;" parent="dj2-hHlsCEYwOQRSpU0T-11" vertex="1">
                    <mxGeometry y="220" width="190" height="24" as="geometry"/>
                </mxCell>
                <mxCell id="dj2-hHlsCEYwOQRSpU0T-23" value="Vision" style="swimlane;fontStyle=0;align=center;verticalAlign=top;childLayout=stackLayout;horizontal=1;startSize=26;horizontalStack=0;resizeParent=1;resizeLast=0;collapsible=1;marginBottom=0;rounded=0;shadow=0;strokeWidth=1;" parent="WIyWlLk6GJQsqaUBKTNV-1" vertex="1">
                    <mxGeometry x="970" y="160" width="180" height="170" as="geometry">
                        <mxRectangle x="590" y="330" width="170" height="26" as="alternateBounds"/>
                    </mxGeometry>
                </mxCell>
                <mxCell id="dj2-hHlsCEYwOQRSpU0T-24" value="+ Camera" style="text;align=left;verticalAlign=top;spacingLeft=4;spacingRight=4;overflow=hidden;rotatable=0;points=[[0,0.5],[1,0.5]];portConstraint=eastwest;" parent="dj2-hHlsCEYwOQRSpU0T-23" vertex="1">
                    <mxGeometry y="26" width="180" height="26" as="geometry"/>
                </mxCell>
                <mxCell id="dj2-hHlsCEYwOQRSpU0T-35" value="+ frame" style="text;align=left;verticalAlign=top;spacingLeft=4;spacingRight=4;overflow=hidden;rotatable=0;points=[[0,0.5],[1,0.5]];portConstraint=eastwest;" parent="dj2-hHlsCEYwOQRSpU0T-23" vertex="1">
                    <mxGeometry y="52" width="180" height="26" as="geometry"/>
                </mxCell>
                <mxCell id="dj2-hHlsCEYwOQRSpU0T-30" value="" style="line;html=1;strokeWidth=1;align=left;verticalAlign=middle;spacingTop=-1;spacingLeft=3;spacingRight=3;rotatable=0;labelPosition=right;points=[];portConstraint=eastwest;" parent="dj2-hHlsCEYwOQRSpU0T-23" vertex="1">
                    <mxGeometry y="78" width="180" height="16" as="geometry"/>
                </mxCell>
                <mxCell id="dj2-hHlsCEYwOQRSpU0T-31" value="- repr() : string" style="text;align=left;verticalAlign=top;spacingLeft=4;spacingRight=4;overflow=hidden;rotatable=0;points=[[0,0.5],[1,0.5]];portConstraint=eastwest;fontStyle=0" parent="dj2-hHlsCEYwOQRSpU0T-23" vertex="1">
                    <mxGeometry y="94" width="180" height="26" as="geometry"/>
                </mxCell>
                <mxCell id="dj2-hHlsCEYwOQRSpU0T-32" value="+ refresh() : void" style="text;align=left;verticalAlign=top;spacingLeft=4;spacingRight=4;overflow=hidden;rotatable=0;points=[[0,0.5],[1,0.5]];portConstraint=eastwest;" parent="dj2-hHlsCEYwOQRSpU0T-23" vertex="1">
                    <mxGeometry y="120" width="180" height="24" as="geometry"/>
                </mxCell>
                <mxCell id="dj2-hHlsCEYwOQRSpU0T-33" value="+ getObjcects() : list(Objects)" style="text;align=left;verticalAlign=top;spacingLeft=4;spacingRight=4;overflow=hidden;rotatable=0;points=[[0,0.5],[1,0.5]];portConstraint=eastwest;" parent="dj2-hHlsCEYwOQRSpU0T-23" vertex="1">
                    <mxGeometry y="144" width="180" height="24" as="geometry"/>
                </mxCell>
                <mxCell id="dj2-hHlsCEYwOQRSpU0T-36" value="DoBotArm" style="swimlane;fontStyle=0;align=center;verticalAlign=top;childLayout=stackLayout;horizontal=1;startSize=26;horizontalStack=0;resizeParent=1;resizeLast=0;collapsible=1;marginBottom=0;rounded=0;shadow=0;strokeWidth=1;" parent="WIyWlLk6GJQsqaUBKTNV-1" vertex="1">
                    <mxGeometry x="20" y="125" width="200" height="322" as="geometry">
                        <mxRectangle x="590" y="330" width="170" height="26" as="alternateBounds"/>
                    </mxGeometry>
                </mxCell>
                <mxCell id="dj2-hHlsCEYwOQRSpU0T-37" value="+ homex " style="text;align=left;verticalAlign=top;spacingLeft=4;spacingRight=4;overflow=hidden;rotatable=0;points=[[0,0.5],[1,0.5]];portConstraint=eastwest;" parent="dj2-hHlsCEYwOQRSpU0T-36" vertex="1">
                    <mxGeometry y="26" width="200" height="26" as="geometry"/>
                </mxCell>
                <mxCell id="dj2-hHlsCEYwOQRSpU0T-43" value="+ homey" style="text;align=left;verticalAlign=top;spacingLeft=4;spacingRight=4;overflow=hidden;rotatable=0;points=[[0,0.5],[1,0.5]];portConstraint=eastwest;fontStyle=0" parent="dj2-hHlsCEYwOQRSpU0T-36" vertex="1">
                    <mxGeometry y="52" width="200" height="26" as="geometry"/>
                </mxCell>
                <mxCell id="dj2-hHlsCEYwOQRSpU0T-38" value="+ homez" style="text;align=left;verticalAlign=top;spacingLeft=4;spacingRight=4;overflow=hidden;rotatable=0;points=[[0,0.5],[1,0.5]];portConstraint=eastwest;" parent="dj2-hHlsCEYwOQRSpU0T-36" vertex="1">
                    <mxGeometry y="78" width="200" height="26" as="geometry"/>
                </mxCell>
                <mxCell id="dj2-hHlsCEYwOQRSpU0T-42" value="" style="line;html=1;strokeWidth=1;align=left;verticalAlign=middle;spacingTop=-1;spacingLeft=3;spacingRight=3;rotatable=0;labelPosition=right;points=[];portConstraint=eastwest;" parent="dj2-hHlsCEYwOQRSpU0T-36" vertex="1">
                    <mxGeometry y="104" width="200" height="16" as="geometry"/>
                </mxCell>
                <mxCell id="dj2-hHlsCEYwOQRSpU0T-44" value="+ dobotConnect() : bool" style="text;align=left;verticalAlign=top;spacingLeft=4;spacingRight=4;overflow=hidden;rotatable=0;points=[[0,0.5],[1,0.5]];portConstraint=eastwest;" parent="dj2-hHlsCEYwOQRSpU0T-36" vertex="1">
                    <mxGeometry y="120" width="200" height="24" as="geometry"/>
                </mxCell>
                <mxCell id="9mN7zdgwnnHDRDSHfo_p-0" value="+ dobotDisconnect() : void" style="text;align=left;verticalAlign=top;spacingLeft=4;spacingRight=4;overflow=hidden;rotatable=0;points=[[0,0.5],[1,0.5]];portConstraint=eastwest;" parent="dj2-hHlsCEYwOQRSpU0T-36" vertex="1">
                    <mxGeometry y="144" width="200" height="24" as="geometry"/>
                </mxCell>
                <mxCell id="dj2-hHlsCEYwOQRSpU0T-45" value="+ moveHome() : void" style="text;align=left;verticalAlign=top;spacingLeft=4;spacingRight=4;overflow=hidden;rotatable=0;points=[[0,0.5],[1,0.5]];portConstraint=eastwest;" parent="dj2-hHlsCEYwOQRSpU0T-36" vertex="1">
                    <mxGeometry y="168" width="200" height="24" as="geometry"/>
                </mxCell>
                <mxCell id="dj2-hHlsCEYwOQRSpU0T-40" value="+ moveArmXY(position) : void" style="text;align=left;verticalAlign=top;spacingLeft=4;spacingRight=4;overflow=hidden;rotatable=0;points=[[0,0.5],[1,0.5]];portConstraint=eastwest;" parent="dj2-hHlsCEYwOQRSpU0T-36" vertex="1">
                    <mxGeometry y="192" width="200" height="26" as="geometry"/>
                </mxCell>
                <mxCell id="9mN7zdgwnnHDRDSHfo_p-1" value="+ commandDelay(lastIndex): void" style="text;align=left;verticalAlign=top;spacingLeft=4;spacingRight=4;overflow=hidden;rotatable=0;points=[[0,0.5],[1,0.5]];portConstraint=eastwest;fontFamily=Helvetica;" parent="dj2-hHlsCEYwOQRSpU0T-36" vertex="1">
                    <mxGeometry y="218" width="200" height="26" as="geometry"/>
                </mxCell>
                <mxCell id="dj2-hHlsCEYwOQRSpU0T-39" value="+ togglesuction(): void" style="text;align=left;verticalAlign=top;spacingLeft=4;spacingRight=4;overflow=hidden;rotatable=0;points=[[0,0.5],[1,0.5]];portConstraint=eastwest;" parent="dj2-hHlsCEYwOQRSpU0T-36" vertex="1">
                    <mxGeometry y="244" width="200" height="26" as="geometry"/>
                </mxCell>
                <mxCell id="9mN7zdgwnnHDRDSHfo_p-2" value="- del(): void" style="text;align=left;verticalAlign=top;spacingLeft=4;spacingRight=4;overflow=hidden;rotatable=0;points=[[0,0.5],[1,0.5]];portConstraint=eastwest;" parent="dj2-hHlsCEYwOQRSpU0T-36" vertex="1">
                    <mxGeometry y="270" width="200" height="26" as="geometry"/>
                </mxCell>
                <mxCell id="9mN7zdgwnnHDRDSHfo_p-3" value="+ pickToggle(itemHeight): void" style="text;align=left;verticalAlign=top;spacingLeft=4;spacingRight=4;overflow=hidden;rotatable=0;points=[[0,0.5],[1,0.5]];portConstraint=eastwest;" parent="dj2-hHlsCEYwOQRSpU0T-36" vertex="1">
                    <mxGeometry y="296" width="200" height="26" as="geometry"/>
                </mxCell>
                <mxCell id="dj2-hHlsCEYwOQRSpU0T-46" value="Pygame" style="swimlane;fontStyle=0;align=center;verticalAlign=top;childLayout=stackLayout;horizontal=1;startSize=26;horizontalStack=0;resizeParent=1;resizeLast=0;collapsible=1;marginBottom=0;rounded=0;shadow=0;strokeWidth=1;" parent="WIyWlLk6GJQsqaUBKTNV-1" vertex="1">
                    <mxGeometry x="80" y="530" width="270" height="300" as="geometry">
                        <mxRectangle x="590" y="330" width="170" height="26" as="alternateBounds"/>
                    </mxGeometry>
                </mxCell>
                <mxCell id="dj2-hHlsCEYwOQRSpU0T-47" value="+ Quit" style="text;align=left;verticalAlign=top;spacingLeft=4;spacingRight=4;overflow=hidden;rotatable=0;points=[[0,0.5],[1,0.5]];portConstraint=eastwest;" parent="dj2-hHlsCEYwOQRSpU0T-46" vertex="1">
                    <mxGeometry y="26" width="270" height="26" as="geometry"/>
                </mxCell>
                <mxCell id="dj2-hHlsCEYwOQRSpU0T-52" value="" style="line;html=1;strokeWidth=1;align=left;verticalAlign=middle;spacingTop=-1;spacingLeft=3;spacingRight=3;rotatable=0;labelPosition=right;points=[];portConstraint=eastwest;" parent="dj2-hHlsCEYwOQRSpU0T-46" vertex="1">
                    <mxGeometry y="52" width="270" height="16" as="geometry"/>
                </mxCell>
                <mxCell id="dj2-hHlsCEYwOQRSpU0T-50" value="+ draw.circle(surface, object, radius): rect" style="text;align=left;verticalAlign=top;spacingLeft=4;spacingRight=4;overflow=hidden;rotatable=0;points=[[0,0.5],[1,0.5]];portConstraint=eastwest;" parent="dj2-hHlsCEYwOQRSpU0T-46" vertex="1">
                    <mxGeometry y="68" width="270" height="26" as="geometry"/>
                </mxCell>
                <mxCell id="dj2-hHlsCEYwOQRSpU0T-48" value="+ draw.polygon(surface, colour, vertices) : rect" style="text;align=left;verticalAlign=top;spacingLeft=4;spacingRight=4;overflow=hidden;rotatable=0;points=[[0,0.5],[1,0.5]];portConstraint=eastwest;" parent="dj2-hHlsCEYwOQRSpU0T-46" vertex="1">
                    <mxGeometry y="94" width="270" height="26" as="geometry"/>
                </mxCell>
                <mxCell id="dj2-hHlsCEYwOQRSpU0T-51" value="+ makeSurface(frame) : surface" style="text;align=left;verticalAlign=top;spacingLeft=4;spacingRight=4;overflow=hidden;rotatable=0;points=[[0,0.5],[1,0.5]];portConstraint=eastwest;" parent="dj2-hHlsCEYwOQRSpU0T-46" vertex="1">
                    <mxGeometry y="120" width="270" height="26" as="geometry"/>
                </mxCell>
                <mxCell id="dj2-hHlsCEYwOQRSpU0T-49" value="+ display.setmode(resolution) : void" style="text;align=left;verticalAlign=top;spacingLeft=4;spacingRight=4;overflow=hidden;rotatable=0;points=[[0,0.5],[1,0.5]];portConstraint=eastwest;" parent="dj2-hHlsCEYwOQRSpU0T-46" vertex="1">
                    <mxGeometry y="146" width="270" height="26" as="geometry"/>
                </mxCell>
                <mxCell id="dj2-hHlsCEYwOQRSpU0T-53" value="+ collidePoint(position) : bool" style="text;align=left;verticalAlign=top;spacingLeft=4;spacingRight=4;overflow=hidden;rotatable=0;points=[[0,0.5],[1,0.5]];portConstraint=eastwest;fontStyle=0" parent="dj2-hHlsCEYwOQRSpU0T-46" vertex="1">
                    <mxGeometry y="172" width="270" height="26" as="geometry"/>
                </mxCell>
                <mxCell id="dj2-hHlsCEYwOQRSpU0T-54" value="+ event.get() : event" style="text;align=left;verticalAlign=top;spacingLeft=4;spacingRight=4;overflow=hidden;rotatable=0;points=[[0,0.5],[1,0.5]];portConstraint=eastwest;" parent="dj2-hHlsCEYwOQRSpU0T-46" vertex="1">
                    <mxGeometry y="198" width="270" height="24" as="geometry"/>
                </mxCell>
                <mxCell id="dj2-hHlsCEYwOQRSpU0T-55" value="+ quit(): void" style="text;align=left;verticalAlign=top;spacingLeft=4;spacingRight=4;overflow=hidden;rotatable=0;points=[[0,0.5],[1,0.5]];portConstraint=eastwest;" parent="dj2-hHlsCEYwOQRSpU0T-46" vertex="1">
                    <mxGeometry y="222" width="270" height="24" as="geometry"/>
                </mxCell>
                <mxCell id="dj2-hHlsCEYwOQRSpU0T-67" value="+ display.update() : void" style="text;align=left;verticalAlign=top;spacingLeft=4;spacingRight=4;overflow=hidden;rotatable=0;points=[[0,0.5],[1,0.5]];portConstraint=eastwest;" parent="dj2-hHlsCEYwOQRSpU0T-46" vertex="1">
                    <mxGeometry y="246" width="270" height="24" as="geometry"/>
                </mxCell>
                <mxCell id="dj2-hHlsCEYwOQRSpU0T-68" value="+ mouse.get_pos() : tuple" style="text;align=left;verticalAlign=top;spacingLeft=4;spacingRight=4;overflow=hidden;rotatable=0;points=[[0,0.5],[1,0.5]];portConstraint=eastwest;" parent="dj2-hHlsCEYwOQRSpU0T-46" vertex="1">
                    <mxGeometry y="270" width="270" height="24" as="geometry"/>
                </mxCell>
                <mxCell id="dj2-hHlsCEYwOQRSpU0T-57" value="Opencv" style="swimlane;fontStyle=0;align=center;verticalAlign=top;childLayout=stackLayout;horizontal=1;startSize=26;horizontalStack=0;resizeParent=1;resizeLast=0;collapsible=1;marginBottom=0;rounded=0;shadow=0;strokeWidth=1;" parent="WIyWlLk6GJQsqaUBKTNV-1" vertex="1">
                    <mxGeometry x="1170" y="620" width="280" height="310" as="geometry">
                        <mxRectangle x="590" y="330" width="170" height="26" as="alternateBounds"/>
                    </mxGeometry>
                </mxCell>
                <mxCell id="dj2-hHlsCEYwOQRSpU0T-63" value="" style="line;html=1;strokeWidth=1;align=left;verticalAlign=middle;spacingTop=-1;spacingLeft=3;spacingRight=3;rotatable=0;labelPosition=right;points=[];portConstraint=eastwest;" parent="dj2-hHlsCEYwOQRSpU0T-57" vertex="1">
                    <mxGeometry y="26" width="280" height="16" as="geometry"/>
                </mxCell>
                <mxCell id="dj2-hHlsCEYwOQRSpU0T-59" value="+ mean(frame, mask) : Scalar" style="text;align=left;verticalAlign=top;spacingLeft=4;spacingRight=4;overflow=hidden;rotatable=0;points=[[0,0.5],[1,0.5]];portConstraint=eastwest;" parent="dj2-hHlsCEYwOQRSpU0T-57" vertex="1">
                    <mxGeometry y="42" width="280" height="26" as="geometry"/>
                </mxCell>
                <mxCell id="dj2-hHlsCEYwOQRSpU0T-60" value="+ set(dimension, int) : void" style="text;align=left;verticalAlign=top;spacingLeft=4;spacingRight=4;overflow=hidden;rotatable=0;points=[[0,0.5],[1,0.5]];portConstraint=eastwest;" parent="dj2-hHlsCEYwOQRSpU0T-57" vertex="1">
                    <mxGeometry y="68" width="280" height="26" as="geometry"/>
                </mxCell>
                <mxCell id="dj2-hHlsCEYwOQRSpU0T-62" value="+ read() : void" style="text;align=left;verticalAlign=top;spacingLeft=4;spacingRight=4;overflow=hidden;rotatable=0;points=[[0,0.5],[1,0.5]];portConstraint=eastwest;" parent="dj2-hHlsCEYwOQRSpU0T-57" vertex="1">
                    <mxGeometry y="94" width="280" height="26" as="geometry"/>
                </mxCell>
                <mxCell id="dj2-hHlsCEYwOQRSpU0T-64" value="+ approxPolyDP(contour, float, bool) : Matlike" style="text;align=left;verticalAlign=top;spacingLeft=4;spacingRight=4;overflow=hidden;rotatable=0;points=[[0,0.5],[1,0.5]];portConstraint=eastwest;fontStyle=0;fontFamily=Helvetica;" parent="dj2-hHlsCEYwOQRSpU0T-57" vertex="1">
                    <mxGeometry y="120" width="280" height="26" as="geometry"/>
                </mxCell>
                <mxCell id="dj2-hHlsCEYwOQRSpU0T-65" value="+ arcLength(contour, bool) : float" style="text;align=left;verticalAlign=top;spacingLeft=4;spacingRight=4;overflow=hidden;rotatable=0;points=[[0,0.5],[1,0.5]];portConstraint=eastwest;fontFamily=Helvetica;" parent="dj2-hHlsCEYwOQRSpU0T-57" vertex="1">
                    <mxGeometry y="146" width="280" height="24" as="geometry"/>
                </mxCell>
                <mxCell id="dj2-hHlsCEYwOQRSpU0T-66" value="+ rotate(image, rotatecode) : Matlike" style="text;align=left;verticalAlign=top;spacingLeft=4;spacingRight=4;overflow=hidden;rotatable=0;points=[[0,0.5],[1,0.5]];portConstraint=eastwest;" parent="dj2-hHlsCEYwOQRSpU0T-57" vertex="1">
                    <mxGeometry y="170" width="280" height="24" as="geometry"/>
                </mxCell>
                <mxCell id="dj2-hHlsCEYwOQRSpU0T-61" value="+ cvtColor(image, convertcode) : Matlike" style="text;align=left;verticalAlign=top;spacingLeft=4;spacingRight=4;overflow=hidden;rotatable=0;points=[[0,0.5],[1,0.5]];portConstraint=eastwest;" parent="dj2-hHlsCEYwOQRSpU0T-57" vertex="1">
                    <mxGeometry y="194" width="280" height="26" as="geometry"/>
                </mxCell>
                <mxCell id="dj2-hHlsCEYwOQRSpU0T-69" value="+ findContours(image, mode, method) : tuple" style="text;align=left;verticalAlign=top;spacingLeft=4;spacingRight=4;overflow=hidden;rotatable=0;points=[[0,0.5],[1,0.5]];portConstraint=eastwest;" parent="dj2-hHlsCEYwOQRSpU0T-57" vertex="1">
                    <mxGeometry y="220" width="280" height="26" as="geometry"/>
                </mxCell>
                <mxCell id="dj2-hHlsCEYwOQRSpU0T-70" value="+ boundingRect(contour) : Rect" style="text;align=left;verticalAlign=top;spacingLeft=4;spacingRight=4;overflow=hidden;rotatable=0;points=[[0,0.5],[1,0.5]];portConstraint=eastwest;" parent="dj2-hHlsCEYwOQRSpU0T-57" vertex="1">
                    <mxGeometry y="246" width="280" height="26" as="geometry"/>
                </mxCell>
                <mxCell id="dj2-hHlsCEYwOQRSpU0T-72" value="+ destroyallwindows() : void" style="text;align=left;verticalAlign=top;spacingLeft=4;spacingRight=4;overflow=hidden;rotatable=0;points=[[0,0.5],[1,0.5]];portConstraint=eastwest;" parent="dj2-hHlsCEYwOQRSpU0T-57" vertex="1">
                    <mxGeometry y="272" width="280" height="26" as="geometry"/>
                </mxCell>
                <mxCell id="dj2-hHlsCEYwOQRSpU0T-91" value="" style="endArrow=diamondThin;endFill=0;endSize=24;html=1;rounded=0;" parent="WIyWlLk6GJQsqaUBKTNV-1" source="dj2-hHlsCEYwOQRSpU0T-11" target="dj2-hHlsCEYwOQRSpU0T-46" edge="1">
                    <mxGeometry width="160" relative="1" as="geometry">
                        <mxPoint x="590" y="780" as="sourcePoint"/>
                        <mxPoint x="480" y="900" as="targetPoint"/>
                    </mxGeometry>
                </mxCell>
                <mxCell id="dj2-hHlsCEYwOQRSpU0T-92" value="has" style="edgeLabel;html=1;align=center;verticalAlign=middle;resizable=0;points=[];" parent="dj2-hHlsCEYwOQRSpU0T-91" vertex="1" connectable="0">
                    <mxGeometry x="0.1284" y="-3" relative="1" as="geometry">
                        <mxPoint x="-38" y="-2" as="offset"/>
                    </mxGeometry>
                </mxCell>
                <mxCell id="dj2-hHlsCEYwOQRSpU0T-93" value="1" style="edgeLabel;html=1;align=center;verticalAlign=middle;resizable=0;points=[];" parent="dj2-hHlsCEYwOQRSpU0T-91" vertex="1" connectable="0">
                    <mxGeometry x="0.6469" y="-4" relative="1" as="geometry">
                        <mxPoint x="-22" y="-21" as="offset"/>
                    </mxGeometry>
                </mxCell>
                <mxCell id="dj2-hHlsCEYwOQRSpU0T-94" value="1" style="edgeLabel;html=1;align=center;verticalAlign=middle;resizable=0;points=[];" parent="dj2-hHlsCEYwOQRSpU0T-91" vertex="1" connectable="0">
                    <mxGeometry x="-0.7481" y="-3" relative="1" as="geometry">
                        <mxPoint y="-12" as="offset"/>
                    </mxGeometry>
                </mxCell>
                <mxCell id="dj2-hHlsCEYwOQRSpU0T-103" value="" style="endArrow=diamondThin;endFill=0;endSize=24;html=1;rounded=0;" parent="WIyWlLk6GJQsqaUBKTNV-1" source="dj2-hHlsCEYwOQRSpU0T-11" target="dj2-hHlsCEYwOQRSpU0T-57" edge="1">
                    <mxGeometry width="160" relative="1" as="geometry">
                        <mxPoint x="890" y="855" as="sourcePoint"/>
                        <mxPoint x="360" y="749" as="targetPoint"/>
                    </mxGeometry>
                </mxCell>
                <mxCell id="dj2-hHlsCEYwOQRSpU0T-104" value="uses" style="edgeLabel;html=1;align=center;verticalAlign=middle;resizable=0;points=[];" parent="dj2-hHlsCEYwOQRSpU0T-103" vertex="1" connectable="0">
                    <mxGeometry x="0.1284" y="-3" relative="1" as="geometry">
                        <mxPoint x="15" y="17" as="offset"/>
                    </mxGeometry>
                </mxCell>
                <mxCell id="dj2-hHlsCEYwOQRSpU0T-105" value="1" style="edgeLabel;html=1;align=center;verticalAlign=middle;resizable=0;points=[];" parent="dj2-hHlsCEYwOQRSpU0T-103" vertex="1" connectable="0">
                    <mxGeometry x="0.6469" y="-4" relative="1" as="geometry">
                        <mxPoint x="-22" y="-21" as="offset"/>
                    </mxGeometry>
                </mxCell>
                <mxCell id="dj2-hHlsCEYwOQRSpU0T-106" value="1" style="edgeLabel;html=1;align=center;verticalAlign=middle;resizable=0;points=[];" parent="dj2-hHlsCEYwOQRSpU0T-103" vertex="1" connectable="0">
                    <mxGeometry x="-0.7481" y="-3" relative="1" as="geometry">
                        <mxPoint y="-12" as="offset"/>
                    </mxGeometry>
                </mxCell>
                <mxCell id="dj2-hHlsCEYwOQRSpU0T-107" value="" style="endArrow=diamondThin;endFill=0;endSize=24;html=1;rounded=0;" parent="WIyWlLk6GJQsqaUBKTNV-1" source="dj2-hHlsCEYwOQRSpU0T-23" target="dj2-hHlsCEYwOQRSpU0T-57" edge="1">
                    <mxGeometry width="160" relative="1" as="geometry">
                        <mxPoint x="760" y="853" as="sourcePoint"/>
                        <mxPoint x="1180" y="802" as="targetPoint"/>
                        <Array as="points">
                            <mxPoint x="1320" y="270"/>
                        </Array>
                    </mxGeometry>
                </mxCell>
                <mxCell id="dj2-hHlsCEYwOQRSpU0T-108" value="uses" style="edgeLabel;html=1;align=center;verticalAlign=middle;resizable=0;points=[];" parent="dj2-hHlsCEYwOQRSpU0T-107" vertex="1" connectable="0">
                    <mxGeometry x="0.1284" y="-3" relative="1" as="geometry">
                        <mxPoint x="15" y="17" as="offset"/>
                    </mxGeometry>
                </mxCell>
                <mxCell id="dj2-hHlsCEYwOQRSpU0T-109" value="1" style="edgeLabel;html=1;align=center;verticalAlign=middle;resizable=0;points=[];" parent="dj2-hHlsCEYwOQRSpU0T-107" vertex="1" connectable="0">
                    <mxGeometry x="0.6469" y="-4" relative="1" as="geometry">
                        <mxPoint x="-22" y="42" as="offset"/>
                    </mxGeometry>
                </mxCell>
                <mxCell id="dj2-hHlsCEYwOQRSpU0T-110" value="1" style="edgeLabel;html=1;align=center;verticalAlign=middle;resizable=0;points=[];" parent="dj2-hHlsCEYwOQRSpU0T-107" vertex="1" connectable="0">
                    <mxGeometry x="-0.7481" y="-3" relative="1" as="geometry">
                        <mxPoint x="-46" y="-12" as="offset"/>
                    </mxGeometry>
                </mxCell>
                <mxCell id="9mN7zdgwnnHDRDSHfo_p-5" value="" style="endArrow=diamondThin;endFill=1;endSize=24;html=1;rounded=0;" parent="WIyWlLk6GJQsqaUBKTNV-1" source="zkfFHV4jXpPFQw0GAbJ--13" target="dj2-hHlsCEYwOQRSpU0T-36" edge="1">
                    <mxGeometry width="160" relative="1" as="geometry">
                        <mxPoint x="250" y="290" as="sourcePoint"/>
                        <mxPoint x="410" y="290" as="targetPoint"/>
                    </mxGeometry>
                </mxCell>
                <mxCell id="9mN7zdgwnnHDRDSHfo_p-6" value="1" style="edgeLabel;html=1;align=center;verticalAlign=middle;resizable=0;points=[];" parent="9mN7zdgwnnHDRDSHfo_p-5" vertex="1" connectable="0">
                    <mxGeometry x="0.5975" y="-1" relative="1" as="geometry">
                        <mxPoint as="offset"/>
                    </mxGeometry>
                </mxCell>
                <mxCell id="9mN7zdgwnnHDRDSHfo_p-7" value="1" style="edgeLabel;html=1;align=center;verticalAlign=middle;resizable=0;points=[];" parent="9mN7zdgwnnHDRDSHfo_p-5" vertex="1" connectable="0">
                    <mxGeometry x="-0.837" y="-2" relative="1" as="geometry">
                        <mxPoint as="offset"/>
                    </mxGeometry>
                </mxCell>
                <mxCell id="9mN7zdgwnnHDRDSHfo_p-8" value="has" style="edgeLabel;html=1;align=center;verticalAlign=middle;resizable=0;points=[];" parent="9mN7zdgwnnHDRDSHfo_p-5" vertex="1" connectable="0">
                    <mxGeometry x="0.0471" y="-2" relative="1" as="geometry">
                        <mxPoint as="offset"/>
                    </mxGeometry>
                </mxCell>
                <mxCell id="Rrt4P_vtmu6pEZQxVQjI-0" value="" style="endArrow=open;endFill=1;endSize=12;html=1;rounded=0;" parent="WIyWlLk6GJQsqaUBKTNV-1" source="dj2-hHlsCEYwOQRSpU0T-11" target="dj2-hHlsCEYwOQRSpU0T-0" edge="1">
                    <mxGeometry width="160" relative="1" as="geometry">
                        <mxPoint x="610" y="750" as="sourcePoint"/>
                        <mxPoint x="770" y="750" as="targetPoint"/>
                    </mxGeometry>
                </mxCell>
                <mxCell id="Rrt4P_vtmu6pEZQxVQjI-1" value="has" style="edgeLabel;html=1;align=center;verticalAlign=middle;resizable=0;points=[];" parent="Rrt4P_vtmu6pEZQxVQjI-0" vertex="1" connectable="0">
                    <mxGeometry x="0.1389" y="-2" relative="1" as="geometry">
                        <mxPoint x="9" y="8" as="offset"/>
                    </mxGeometry>
                </mxCell>
                <mxCell id="Rrt4P_vtmu6pEZQxVQjI-2" value="1" style="edgeLabel;html=1;align=center;verticalAlign=middle;resizable=0;points=[];" parent="Rrt4P_vtmu6pEZQxVQjI-0" vertex="1" connectable="0">
                    <mxGeometry x="-0.7539" relative="1" as="geometry">
                        <mxPoint x="12" as="offset"/>
                    </mxGeometry>
                </mxCell>
                <mxCell id="Rrt4P_vtmu6pEZQxVQjI-3" value="0..*" style="edgeLabel;html=1;align=center;verticalAlign=middle;resizable=0;points=[];" parent="Rrt4P_vtmu6pEZQxVQjI-0" vertex="1" connectable="0">
                    <mxGeometry x="0.7536" y="1" relative="1" as="geometry">
                        <mxPoint x="22" as="offset"/>
                    </mxGeometry>
                </mxCell>
                <mxCell id="Rrt4P_vtmu6pEZQxVQjI-4" value="" style="endArrow=open;endFill=1;endSize=12;html=1;rounded=0;" parent="WIyWlLk6GJQsqaUBKTNV-1" source="dj2-hHlsCEYwOQRSpU0T-23" target="dj2-hHlsCEYwOQRSpU0T-0" edge="1">
                    <mxGeometry width="160" relative="1" as="geometry">
                        <mxPoint x="1010" y="620" as="sourcePoint"/>
                        <mxPoint x="1013" y="500" as="targetPoint"/>
                    </mxGeometry>
                </mxCell>
                <mxCell id="Rrt4P_vtmu6pEZQxVQjI-5" value="has" style="edgeLabel;html=1;align=center;verticalAlign=middle;resizable=0;points=[];" parent="Rrt4P_vtmu6pEZQxVQjI-4" vertex="1" connectable="0">
                    <mxGeometry x="0.1389" y="-2" relative="1" as="geometry">
                        <mxPoint x="-25" y="27" as="offset"/>
                    </mxGeometry>
                </mxCell>
                <mxCell id="Rrt4P_vtmu6pEZQxVQjI-6" value="1" style="edgeLabel;html=1;align=center;verticalAlign=middle;resizable=0;points=[];" parent="Rrt4P_vtmu6pEZQxVQjI-4" vertex="1" connectable="0">
                    <mxGeometry x="-0.7539" relative="1" as="geometry">
                        <mxPoint x="12" as="offset"/>
                    </mxGeometry>
                </mxCell>
                <mxCell id="Rrt4P_vtmu6pEZQxVQjI-7" value="0..*" style="edgeLabel;html=1;align=center;verticalAlign=middle;resizable=0;points=[];" parent="Rrt4P_vtmu6pEZQxVQjI-4" vertex="1" connectable="0">
                    <mxGeometry x="0.7536" y="1" relative="1" as="geometry">
                        <mxPoint x="22" as="offset"/>
                    </mxGeometry>
                </mxCell>
                <mxCell id="Rrt4P_vtmu6pEZQxVQjI-8" value="" style="endArrow=open;endFill=1;endSize=12;html=1;rounded=0;" parent="WIyWlLk6GJQsqaUBKTNV-1" source="zkfFHV4jXpPFQw0GAbJ--13" target="dj2-hHlsCEYwOQRSpU0T-0" edge="1">
                    <mxGeometry width="160" relative="1" as="geometry">
                        <mxPoint x="991" y="340" as="sourcePoint"/>
                        <mxPoint x="837" y="504" as="targetPoint"/>
                    </mxGeometry>
                </mxCell>
                <mxCell id="Rrt4P_vtmu6pEZQxVQjI-9" value="has" style="edgeLabel;html=1;align=center;verticalAlign=middle;resizable=0;points=[];" parent="Rrt4P_vtmu6pEZQxVQjI-8" vertex="1" connectable="0">
                    <mxGeometry x="0.1389" y="-2" relative="1" as="geometry">
                        <mxPoint x="9" y="8" as="offset"/>
                    </mxGeometry>
                </mxCell>
                <mxCell id="Rrt4P_vtmu6pEZQxVQjI-10" value="1" style="edgeLabel;html=1;align=center;verticalAlign=middle;resizable=0;points=[];" parent="Rrt4P_vtmu6pEZQxVQjI-8" vertex="1" connectable="0">
                    <mxGeometry x="-0.7539" relative="1" as="geometry">
                        <mxPoint x="12" as="offset"/>
                    </mxGeometry>
                </mxCell>
                <mxCell id="Rrt4P_vtmu6pEZQxVQjI-11" value="0..*" style="edgeLabel;html=1;align=center;verticalAlign=middle;resizable=0;points=[];" parent="Rrt4P_vtmu6pEZQxVQjI-8" vertex="1" connectable="0">
                    <mxGeometry x="0.7536" y="1" relative="1" as="geometry">
                        <mxPoint x="22" as="offset"/>
                    </mxGeometry>
                </mxCell>
                <mxCell id="Rrt4P_vtmu6pEZQxVQjI-12" value="" style="endArrow=open;endFill=1;endSize=12;html=1;rounded=0;" parent="WIyWlLk6GJQsqaUBKTNV-1" source="dj2-hHlsCEYwOQRSpU0T-0" target="dj2-hHlsCEYwOQRSpU0T-46" edge="1">
                    <mxGeometry width="160" relative="1" as="geometry">
                        <mxPoint x="480" y="420" as="sourcePoint"/>
                        <mxPoint x="556" y="569" as="targetPoint"/>
                    </mxGeometry>
                </mxCell>
                <mxCell id="Rrt4P_vtmu6pEZQxVQjI-13" value="uses" style="edgeLabel;html=1;align=center;verticalAlign=middle;resizable=0;points=[];" parent="Rrt4P_vtmu6pEZQxVQjI-12" vertex="1" connectable="0">
                    <mxGeometry x="0.1389" y="-2" relative="1" as="geometry">
                        <mxPoint x="9" y="8" as="offset"/>
                    </mxGeometry>
                </mxCell>
                <mxCell id="Rrt4P_vtmu6pEZQxVQjI-14" value="0..*" style="edgeLabel;html=1;align=center;verticalAlign=middle;resizable=0;points=[];" parent="Rrt4P_vtmu6pEZQxVQjI-12" vertex="1" connectable="0">
                    <mxGeometry x="-0.7539" relative="1" as="geometry">
                        <mxPoint x="12" as="offset"/>
                    </mxGeometry>
                </mxCell>
                <mxCell id="Rrt4P_vtmu6pEZQxVQjI-15" value="1" style="edgeLabel;html=1;align=center;verticalAlign=middle;resizable=0;points=[];" parent="Rrt4P_vtmu6pEZQxVQjI-12" vertex="1" connectable="0">
                    <mxGeometry x="0.7536" y="1" relative="1" as="geometry">
                        <mxPoint x="22" as="offset"/>
                    </mxGeometry>
                </mxCell>
                <mxCell id="Oj3FPnpQh0RmSMI5z-dr-0" value="&lt;span style=&quot;font-weight: normal;&quot;&gt;Main()&lt;/span&gt;" style="swimlane;fontStyle=1;align=center;verticalAlign=top;childLayout=stackLayout;horizontal=1;startSize=26;horizontalStack=0;resizeParent=1;resizeParentMax=0;resizeLast=0;collapsible=1;marginBottom=0;whiteSpace=wrap;html=1;" parent="WIyWlLk6GJQsqaUBKTNV-1" vertex="1">
                    <mxGeometry x="850" y="550" width="160" height="34" as="geometry"/>
                </mxCell>
                <mxCell id="Oj3FPnpQh0RmSMI5z-dr-2" value="" style="line;strokeWidth=1;fillColor=none;align=left;verticalAlign=middle;spacingTop=-1;spacingLeft=3;spacingRight=3;rotatable=0;labelPosition=right;points=[];portConstraint=eastwest;strokeColor=inherit;" parent="Oj3FPnpQh0RmSMI5z-dr-0" vertex="1">
                    <mxGeometry y="26" width="160" height="8" as="geometry"/>
                </mxCell>
                <mxCell id="CpRp-BgLZ8wn6DOm0UDs-0" value="" style="endArrow=diamondThin;endFill=0;endSize=24;html=1;rounded=0;" parent="WIyWlLk6GJQsqaUBKTNV-1" source="Oj3FPnpQh0RmSMI5z-dr-0" target="dj2-hHlsCEYwOQRSpU0T-11" edge="1">
                    <mxGeometry width="160" relative="1" as="geometry">
                        <mxPoint x="860" y="691" as="sourcePoint"/>
                        <mxPoint x="1020" y="691" as="targetPoint"/>
                    </mxGeometry>
                </mxCell>
                <mxCell id="CpRp-BgLZ8wn6DOm0UDs-1" value="owns&lt;br&gt;" style="edgeLabel;html=1;align=center;verticalAlign=middle;resizable=0;points=[];" parent="CpRp-BgLZ8wn6DOm0UDs-0" vertex="1" connectable="0">
                    <mxGeometry x="0.2582" y="-2" relative="1" as="geometry">
                        <mxPoint y="1" as="offset"/>
                    </mxGeometry>
                </mxCell>
                <mxCell id="CpRp-BgLZ8wn6DOm0UDs-2" value="1" style="edgeLabel;html=1;align=center;verticalAlign=middle;resizable=0;points=[];" parent="CpRp-BgLZ8wn6DOm0UDs-0" vertex="1" connectable="0">
                    <mxGeometry x="0.6719" y="-1" relative="1" as="geometry">
                        <mxPoint x="7" as="offset"/>
                    </mxGeometry>
                </mxCell>
                <mxCell id="CpRp-BgLZ8wn6DOm0UDs-3" value="1" style="edgeLabel;html=1;align=center;verticalAlign=middle;resizable=0;points=[];" parent="CpRp-BgLZ8wn6DOm0UDs-0" vertex="1" connectable="0">
                    <mxGeometry x="-0.9035" relative="1" as="geometry">
                        <mxPoint x="4" y="14" as="offset"/>
                    </mxGeometry>
                </mxCell>
                <mxCell id="CpRp-BgLZ8wn6DOm0UDs-4" value="" style="endArrow=diamondThin;endFill=0;endSize=24;html=1;rounded=0;" parent="WIyWlLk6GJQsqaUBKTNV-1" source="Oj3FPnpQh0RmSMI5z-dr-0" target="zkfFHV4jXpPFQw0GAbJ--13" edge="1">
                    <mxGeometry width="160" relative="1" as="geometry">
                        <mxPoint x="932" y="594" as="sourcePoint"/>
                        <mxPoint x="815" y="840" as="targetPoint"/>
                    </mxGeometry>
                </mxCell>
                <mxCell id="CpRp-BgLZ8wn6DOm0UDs-5" value="owns&lt;br&gt;" style="edgeLabel;html=1;align=center;verticalAlign=middle;resizable=0;points=[];" parent="CpRp-BgLZ8wn6DOm0UDs-4" vertex="1" connectable="0">
                    <mxGeometry x="0.2582" y="-2" relative="1" as="geometry">
                        <mxPoint y="1" as="offset"/>
                    </mxGeometry>
                </mxCell>
                <mxCell id="CpRp-BgLZ8wn6DOm0UDs-6" value="1" style="edgeLabel;html=1;align=center;verticalAlign=middle;resizable=0;points=[];" parent="CpRp-BgLZ8wn6DOm0UDs-4" vertex="1" connectable="0">
                    <mxGeometry x="0.6719" y="-1" relative="1" as="geometry">
                        <mxPoint x="7" as="offset"/>
                    </mxGeometry>
                </mxCell>
                <mxCell id="CpRp-BgLZ8wn6DOm0UDs-7" value="1" style="edgeLabel;html=1;align=center;verticalAlign=middle;resizable=0;points=[];" parent="CpRp-BgLZ8wn6DOm0UDs-4" vertex="1" connectable="0">
                    <mxGeometry x="-0.9035" relative="1" as="geometry">
                        <mxPoint x="4" y="14" as="offset"/>
                    </mxGeometry>
                </mxCell>
                <mxCell id="CpRp-BgLZ8wn6DOm0UDs-8" value="" style="endArrow=diamondThin;endFill=0;endSize=24;html=1;rounded=0;" parent="WIyWlLk6GJQsqaUBKTNV-1" source="Oj3FPnpQh0RmSMI5z-dr-0" target="dj2-hHlsCEYwOQRSpU0T-0" edge="1">
                    <mxGeometry width="160" relative="1" as="geometry">
                        <mxPoint x="942" y="604" as="sourcePoint"/>
                        <mxPoint x="825" y="850" as="targetPoint"/>
                    </mxGeometry>
                </mxCell>
                <mxCell id="CpRp-BgLZ8wn6DOm0UDs-9" value="owns&lt;br&gt;" style="edgeLabel;html=1;align=center;verticalAlign=middle;resizable=0;points=[];" parent="CpRp-BgLZ8wn6DOm0UDs-8" vertex="1" connectable="0">
                    <mxGeometry x="0.2582" y="-2" relative="1" as="geometry">
                        <mxPoint y="1" as="offset"/>
                    </mxGeometry>
                </mxCell>
                <mxCell id="CpRp-BgLZ8wn6DOm0UDs-10" value="0..*" style="edgeLabel;html=1;align=center;verticalAlign=middle;resizable=0;points=[];" parent="CpRp-BgLZ8wn6DOm0UDs-8" vertex="1" connectable="0">
                    <mxGeometry x="0.6719" y="-1" relative="1" as="geometry">
                        <mxPoint x="7" y="-15" as="offset"/>
                    </mxGeometry>
                </mxCell>
                <mxCell id="CpRp-BgLZ8wn6DOm0UDs-11" value="1" style="edgeLabel;html=1;align=center;verticalAlign=middle;resizable=0;points=[];" parent="CpRp-BgLZ8wn6DOm0UDs-8" vertex="1" connectable="0">
                    <mxGeometry x="-0.9035" relative="1" as="geometry">
                        <mxPoint x="4" y="14" as="offset"/>
                    </mxGeometry>
                </mxCell>
                <mxCell id="CpRp-BgLZ8wn6DOm0UDs-12" value="" style="endArrow=diamondThin;endFill=0;endSize=24;html=1;rounded=0;" parent="WIyWlLk6GJQsqaUBKTNV-1" source="Oj3FPnpQh0RmSMI5z-dr-0" target="dj2-hHlsCEYwOQRSpU0T-23" edge="1">
                    <mxGeometry width="160" relative="1" as="geometry">
                        <mxPoint x="952" y="614" as="sourcePoint"/>
                        <mxPoint x="835" y="860" as="targetPoint"/>
                    </mxGeometry>
                </mxCell>
                <mxCell id="CpRp-BgLZ8wn6DOm0UDs-13" value="owns&lt;br&gt;" style="edgeLabel;html=1;align=center;verticalAlign=middle;resizable=0;points=[];" parent="CpRp-BgLZ8wn6DOm0UDs-12" vertex="1" connectable="0">
                    <mxGeometry x="0.2582" y="-2" relative="1" as="geometry">
                        <mxPoint y="1" as="offset"/>
                    </mxGeometry>
                </mxCell>
                <mxCell id="CpRp-BgLZ8wn6DOm0UDs-14" value="1" style="edgeLabel;html=1;align=center;verticalAlign=middle;resizable=0;points=[];" parent="CpRp-BgLZ8wn6DOm0UDs-12" vertex="1" connectable="0">
                    <mxGeometry x="0.6719" y="-1" relative="1" as="geometry">
                        <mxPoint x="7" as="offset"/>
                    </mxGeometry>
                </mxCell>
                <mxCell id="CpRp-BgLZ8wn6DOm0UDs-15" value="1" style="edgeLabel;html=1;align=center;verticalAlign=middle;resizable=0;points=[];" parent="CpRp-BgLZ8wn6DOm0UDs-12" vertex="1" connectable="0">
                    <mxGeometry x="-0.9035" relative="1" as="geometry">
                        <mxPoint x="4" y="14" as="offset"/>
                    </mxGeometry>
                </mxCell>
            </root>
        </mxGraphModel>
    </diagram>
</mxfile>